<svg id="레이어_1" data-name="레이어 1" xmlns="http://www.w3.org/2000/svg" viewBox="0 0 1000 1000"><defs><style>.cls-1{fill:#3b4551;}.cls-2{fill:#fff;}</style></defs><path class="cls-1" d="M254.84,724.22a43.86,43.86,0,0,1-72.8,33v49.48H167V680.28H182v10.9a43.86,43.86,0,0,1,72.8,33Zm-15.09,0a28.86,28.86,0,1,0-28.85,29A29,29,0,0,0,239.75,724.22Z"/><path class="cls-1" d="M359.84,680.28v88.39H344.75v-10.9a44.2,44.2,0,1,1,0-66.59v-10.9Zm-15.09,44.28a29,29,0,1,0-29,29A29,29,0,0,0,344.75,724.56Z"/><path class="cls-1" d="M447.23,680.28l-26.84,57.53L412,755.59l-5.71,12.24-14.25,30.7-3.86,8.22H371.58l3.86-8.22,14.26-30.7,14.09-30L377,680.28h16.61L412,720l18.62-39.75Z"/><path class="cls-1" d="M591.15,720.53v48.14H575.89V720.53c0-11.91-8.56-25.16-20.8-25.16-11.91,0-21.14,13.09-21.14,24.32v49h-15.1V720.53c0-11.91-8.55-25.16-20.8-25.16-11.9,0-21.13,13.09-21.13,24.32v49H461.66v-49c0-18.62,14.92-39.41,36.39-39.41,12.08,0,22.15,6.7,28.35,16.1,6.38-9.4,16.44-16.1,28.69-16.1C576.56,680.28,591.15,701.07,591.15,720.53Z"/><path class="cls-1" d="M686.59,746.36a44.33,44.33,0,1,1,5.7-21.8,52.9,52.9,0,0,1-.84,9.06H620.67a29,29,0,0,0,50.82,8.22Zm-66.76-27.84h56.86a29.3,29.3,0,0,0-28.51-23A29,29,0,0,0,619.83,718.52Z"/><path class="cls-1" d="M766.6,768.67V720.53c0-11.91-8.56-25.16-20.8-25.16-11.91,0-21.14,13.09-21.14,24.32v49H709.57v-49c0-18.62,14.76-39.41,36.23-39.41s35.9,20.79,35.9,40.25v48.14Z"/><path class="cls-1" d="M838.05,680.28H825.81v88.39h-15.1V680.28H798.47v-15.1h12.24V639h15.1v26.17h12.24Z"/><path class="cls-1" d="M798.4,601H206.6c-26.63,0-48.21-20.26-48.21-45.26V235.57c0-25,21.58-45.27,48.21-45.27H798.4c26.63,0,48.21,20.27,48.21,45.27V555.75C846.61,580.75,825,601,798.4,601Z"/><path class="cls-2" d="M793.22,438.21H719.46c-7.43,0-13.46-6.62-13.46-14.79V382.69c0-8.16,6-14.78,13.46-14.78h73.76c7.44,0,13.46,6.62,13.46,14.78v40.73C806.68,431.59,800.66,438.21,793.22,438.21Z"/><path class="cls-2" d="M357.23,407.5A89.68,89.68,0,0,1,349.89,444a103.41,103.41,0,0,1-20.36,30.31,96.28,96.28,0,0,1-30.31,20.37,91,91,0,0,1-36.71,7.57h-63L231,470.49h31.49a65.35,65.35,0,0,0,24.63-4.73A62.23,62.23,0,0,0,307.27,452a68.2,68.2,0,0,0,13.49-20.13,62.22,62.22,0,0,0,0-48.78A64.59,64.59,0,0,0,307,363a65.91,65.91,0,0,0-20.13-13.73,64.81,64.81,0,0,0-24.39-4.74H231l-31.5-31.73h63a91.83,91.83,0,0,1,36.71,7.58,98,98,0,0,1,30.07,20.36A99.74,99.74,0,0,1,349.89,371,89.71,89.71,0,0,1,357.23,407.5Z"/><path class="cls-2" d="M418.33,423.37a53.26,53.26,0,0,1-39.07-16.1c-10.66-10.9-16.11-23.92-16.11-39.31,0-15.16,5.45-27.95,16.11-38.84s23.68-16.34,39.07-16.34v31.73a23.8,23.8,0,0,0-9.24,1.66,21.49,21.49,0,0,0-7.81,5.21,24.33,24.33,0,0,0,0,33.39,22.85,22.85,0,0,0,17.05,7.1h47.12A53.23,53.23,0,0,1,504.52,408q16.35,16.33,16.34,39.07t-16.34,39.07a53.23,53.23,0,0,1-39.07,16.1V470.49a23.65,23.65,0,0,0,9.24-1.66,22.1,22.1,0,0,0,7.81-5,21.06,21.06,0,0,0,5-7.58,23.72,23.72,0,0,0,1.9-9.23c0-6.4-2.61-11.84-7.11-16.58a22.73,22.73,0,0,0-16.81-7.1Z"/><path class="cls-2" d="M470.19,312.78l94.95,94.72,94.73-94.72V502.22H628.61V389l-63.47,63.23-94.95-95.43Z"/></svg>