<svg id="레이어_1" data-name="레이어 1" xmlns="http://www.w3.org/2000/svg" viewBox="0 0 1000 1000"><defs><style>.cls-1{fill:#3b4551;}.cls-2{fill:#fff;}</style></defs><path class="cls-1" d="M244.23,735.93a44.45,44.45,0,0,1-73.78,33.49v50.15h-15.3V691.39h15.3v11.05a44.45,44.45,0,0,1,73.78,33.49Zm-15.3,0a29.24,29.24,0,1,0-29.24,29.41A29.35,29.35,0,0,0,228.93,735.93Z"/><path class="cls-1" d="M350.65,691.39V781h-15.3V769.93a44.8,44.8,0,1,1,0-67.49V691.39Zm-15.3,44.88a29.41,29.41,0,1,0-29.41,29.41A29.42,29.42,0,0,0,335.35,736.27Z"/><path class="cls-1" d="M439.21,691.39,412,749.7l-8.5,18-5.78,12.41-14.45,31.11-3.91,8.33H362.54l3.91-8.33,14.45-31.11,14.28-30.43L368,691.39h16.83l18.7,40.29,18.87-40.29Z"/><path class="cls-1" d="M585.07,732.19V781H569.6V732.19c0-12.07-8.67-25.5-21.08-25.5-12.07,0-21.42,13.26-21.42,24.65V781H511.8V732.19c0-12.07-8.67-25.5-21.08-25.5-12.07,0-21.42,13.26-21.42,24.65V781H453.83V731.34c0-18.87,15.13-40,36.89-40,12.24,0,22.44,6.8,28.73,16.32,6.46-9.52,16.66-16.32,29.07-16.32C570.28,691.39,585.07,712.47,585.07,732.19Z"/><path class="cls-1" d="M681.8,758.37a44.93,44.93,0,1,1,5.78-22.1,54.21,54.21,0,0,1-.85,9.18H615a29.36,29.36,0,0,0,51.51,8.33Zm-67.66-28.22h57.63a29.7,29.7,0,0,0-28.9-23.29A29.37,29.37,0,0,0,614.14,730.15Z"/><path class="cls-1" d="M762.89,781V732.19c0-12.07-8.67-25.5-21.08-25.5-12.07,0-21.42,13.26-21.42,24.65V781h-15.3V731.34c0-18.87,15-40,36.72-40s36.38,21.08,36.38,40.8V781Z"/><path class="cls-1" d="M835.31,691.39H822.9V781H807.6V691.39H795.19v-15.3H807.6V649.57h15.3v26.52h12.41Z"/><path class="cls-1" d="M795.35,615H198.4c-26.86,0-48.63-20.44-48.63-45.65v-323c0-25.22,21.77-45.66,48.63-45.66h597c26.86,0,48.62,20.44,48.62,45.66v323C844,594.57,822.21,615,795.35,615Z"/><path class="cls-2" d="M782.66,443.33h-74.4c-7.5,0-13.58-6.68-13.58-14.92V387.33c0-8.24,6.08-14.91,13.58-14.91h74.4c7.5,0,13.58,6.67,13.58,14.91v41.08C796.24,436.65,790.16,443.33,782.66,443.33Z"/><path class="cls-2" d="M336.21,407.78a90.85,90.85,0,0,1-7.44,37,104.64,104.64,0,0,1-20.65,30.73,97.56,97.56,0,0,1-30.73,20.65,92.15,92.15,0,0,1-37.21,7.68H176.33l31.92-32.17h31.93a66.06,66.06,0,0,0,25-4.8,62.94,62.94,0,0,0,20.41-13.93,69.21,69.21,0,0,0,13.68-20.4,63.17,63.17,0,0,0,0-49.45,65.52,65.52,0,0,0-13.92-20.41,67.08,67.08,0,0,0-20.41-13.92,65.55,65.55,0,0,0-24.73-4.81H208.25l-31.92-32.16h63.85a93,93,0,0,1,37.21,7.68,99.07,99.07,0,0,1,30.49,20.64,101.11,101.11,0,0,1,20.89,30.73A90.88,90.88,0,0,1,336.21,407.78Z"/><path class="cls-2" d="M398.15,423.87a54,54,0,0,1-39.61-16.33c-10.8-11-16.33-24.24-16.33-39.85,0-15.36,5.53-28.33,16.33-39.37s24-16.56,39.61-16.56v32.16a24,24,0,0,0-9.36,1.68,22,22,0,0,0-7.92,5.29,24.65,24.65,0,0,0,0,33.85,23.19,23.19,0,0,0,17.28,7.2h47.77a54,54,0,0,1,39.61,16.32q16.58,16.58,16.57,39.61t-16.57,39.61a54,54,0,0,1-39.61,16.33V471.64a24.09,24.09,0,0,0,9.37-1.68,22.4,22.4,0,0,0,7.92-5,21.4,21.4,0,0,0,5-7.68,24.24,24.24,0,0,0,1.92-9.37c0-6.48-2.64-12-7.2-16.8a23,23,0,0,0-17.05-7.2Z"/><path class="cls-2" d="M450.73,311.76l96.26,96,96-96V503.81H611.33V389.06L547,453.15l-96.26-96.74Z"/><text/></svg>